<svg xmlns="http://www.w3.org/2000/svg" viewBox="0 0 90 140" width="90" height="140">
  <style>
    @keyframes f1 { 0% { opacity: 1; } 25% { opacity: 0; } }
    @keyframes f2 { 0% { opacity: 0; } 25% { opacity: 1; } 50% { opacity: 0; } }
    @keyframes f3 { 0% { opacity: 0; } 50% { opacity: 1; } 75% { opacity: 0; } }
    @keyframes f4 { 0% { opacity: 0; } 75% { opacity: 1; } }
    .f1 { animation: f1 2s step-end infinite; }
    .f2 { animation: f2 2s step-end infinite; }
    .f3 { animation: f3 2s step-end infinite; }
    .f4 { animation: f4 2s step-end infinite; }
  </style>

  <defs>
    <linearGradient id="backFade" x1="0" y1="0" x2="0" y2="140" gradientUnits="userSpaceOnUse">
      <stop offset="0%" stop-color="#fff" stop-opacity="0.05"/>
      <stop offset="15%" stop-color="#fff" stop-opacity="0.4"/>
      <stop offset="85%" stop-color="#fff" stop-opacity="0.4"/>
      <stop offset="100%" stop-color="#fff" stop-opacity="0.05"/>
    </linearGradient>
    <linearGradient id="frontFade" x1="0" y1="0" x2="0" y2="140" gradientUnits="userSpaceOnUse">
      <stop offset="0%" stop-color="#fff" stop-opacity="0.1"/>
      <stop offset="15%" stop-color="#fff" stop-opacity="1"/>
      <stop offset="85%" stop-color="#fff" stop-opacity="1"/>
      <stop offset="100%" stop-color="#fff" stop-opacity="0.1"/>
    </linearGradient>
  </defs>

  <g class="f1" stroke-linecap="round" stroke-linejoin="round">
    <path d="M 20,10 C 42,30 55,35 72,50 C 55,65 42,70 20,90 C 42,105 55,110 72,130" fill="none" stroke="#ffffff" stroke-width="5" opacity="0.95"/>
    <path d="M 72,10 C 50,30 37,35 20,50 C 37,65 50,70 72,90 C 50,105 37,110 20,130" fill="none" stroke="#ffffff" stroke-width="2.5" opacity="0.3"/>
    <g stroke="#ffffff" stroke-width="1.5" opacity="0.5">
      <line x1="26" y1="22" x2="66" y2="28"/>
      <line x1="40" y1="42" x2="50" y2="46"/>
      <line x1="66" y1="62" x2="24" y2="68"/>
      <line x1="50" y1="82" x2="40" y2="86"/>
      <line x1="24" y1="102" x2="66" y2="108"/>
    </g>
  </g>

  <g class="f2" stroke-linecap="round" stroke-linejoin="round">
    <path d="M 24,10 C 36,30 52,35 62,50 C 48,65 36,70 28,90 C 38,105 50,110 62,130" fill="none" stroke="#ffffff" stroke-width="4.5" opacity="0.85"/>
    <path d="M 68,10 C 56,30 40,35 30,50 C 44,65 56,70 64,90 C 54,105 42,110 30,130" fill="none" stroke="#ffffff" stroke-width="2.5" opacity="0.25"/>
    <g stroke="#ffffff" stroke-width="1.4" opacity="0.45">
      <line x1="30" y1="22" x2="62" y2="28"/>
      <line x1="44" y1="42" x2="46" y2="46"/>
      <line x1="62" y1="62" x2="28" y2="68"/>
      <line x1="46" y1="82" x2="44" y2="86"/>
      <line x1="28" y1="102" x2="62" y2="108"/>
    </g>
  </g>

  <g class="f3" stroke-linecap="round" stroke-linejoin="round">
    <path d="M 26,10 C 22,30 22,52 26,72 C 22,90 26,110 26,130" fill="none" stroke="#ffffff" stroke-width="4" opacity="0.7"/>
    <path d="M 66,10 C 70,30 70,52 66,72 C 70,90 66,110 66,130" fill="none" stroke="#ffffff" stroke-width="2.5" opacity="0.2"/>
    <g stroke="#ffffff" stroke-width="1.2" opacity="0.35">
      <line x1="26" y1="24" x2="66" y2="24"/>
      <line x1="26" y1="44" x2="66" y2="44"/>
      <line x1="26" y1="64" x2="66" y2="64"/>
      <line x1="26" y1="84" x2="66" y2="84"/>
      <line x1="26" y1="104" x2="66" y2="104"/>
    </g>
  </g>

  <g class="f4" stroke-linecap="round" stroke-linejoin="round">
    <path d="M 68,10 C 56,30 40,35 30,50 C 44,65 56,70 64,90 C 54,105 42,110 30,130" fill="none" stroke="#ffffff" stroke-width="4.5" opacity="0.85"/>
    <path d="M 24,10 C 36,30 52,35 62,50 C 48,65 36,70 28,90 C 38,105 50,110 62,130" fill="none" stroke="#ffffff" stroke-width="2.5" opacity="0.25"/>
    <g stroke="#ffffff" stroke-width="1.4" opacity="0.45">
      <line x1="62" y1="22" x2="30" y2="28"/>
      <line x1="46" y1="42" x2="44" y2="46"/>
      <line x1="28" y1="62" x2="62" y2="68"/>
      <line x1="44" y1="82" x2="46" y2="86"/>
      <line x1="62" y1="102" x2="28" y2="108"/>
    </g>
  </g>
</svg>
